<svg width="330" height="49" viewBox="0 0 330 49" fill="none" xmlns="http://www.w3.org/2000/svg">
<path d="M327 0H2.3C1.02974 0 0 1.0969 0 2.45V46.55C0 47.9031 1.02974 49 2.3 49H327C328.27 49 329.3 47.9031 329.3 46.55V2.45C329.3 1.0969 328.27 0 327 0Z" fill="white"/>
<path d="M2.3 0.25H327C328.118 0.25 329.05 1.21986 329.05 2.45V46.55C329.05 47.7801 328.118 48.75 327 48.75H2.3C1.18246 48.75 0.25 47.7801 0.25 46.55V2.45C0.25 1.21986 1.18246 0.25 2.3 0.25Z" stroke="black" stroke-opacity="0.8" stroke-width="0.5"/>
<path fill-rule="evenodd" clip-rule="evenodd" d="M36.3509 25.6381C36.3509 24.8258 36.2748 24.0516 36.1478 23.3027H25.3848V27.7197H31.5278C31.2613 29.1412 30.4617 30.3597 29.2432 31.172V34.0404H32.9367C35.0944 32.0477 36.3382 29.1285 36.3382 25.6381H36.3509Z" fill="#4285F4"/>
<path fill-rule="evenodd" clip-rule="evenodd" d="M25.3853 36.8074C28.4695 36.8074 31.0587 35.7793 32.9499 34.0405L29.2564 31.172C28.2284 31.8574 26.921 32.2635 25.3853 32.2635C22.4153 32.2635 19.8895 30.2581 18.9884 27.5547H15.168V30.512C17.0464 34.2435 20.9049 36.8074 25.3726 36.8074H25.3853Z" fill="#34A853"/>
<path fill-rule="evenodd" clip-rule="evenodd" d="M18.9881 27.5547C18.7596 26.8693 18.6327 26.1331 18.6327 25.3843C18.6327 24.6354 18.7596 23.8993 18.9881 23.2139V20.2566H15.1677C14.3934 21.8051 13.9492 23.5439 13.9492 25.3843C13.9492 27.2247 14.3934 28.9762 15.1677 30.512L18.9881 27.5547Z" fill="#FBBC05"/>
<path fill-rule="evenodd" clip-rule="evenodd" d="M25.3853 18.5048C27.0607 18.5048 28.571 19.0759 29.7514 20.2182L33.0261 16.9436C31.0461 15.1032 28.4568 13.9736 25.3853 13.9736C20.9176 13.9736 17.0591 16.5375 15.1807 20.269L19.001 23.2263C19.9022 20.5229 22.4153 18.5175 25.398 18.5175L25.3853 18.5048Z" fill="#EA4335"/>
<path d="M121.595 18.995H130.07V20H121.595V18.995ZM120.065 24.815H132.32V25.835H120.065V24.815ZM125.54 25.49H126.785V31.685H125.54V25.49ZM129.485 18.995H130.7V20.165C130.7 21.575 130.7 23.165 130.19 25.46L128.96 25.295C129.485 23.105 129.485 21.53 129.485 20.165V18.995ZM135.424 18.68H144.154V19.685H135.424V18.68ZM133.864 23.15H146.149V24.17H133.864V23.15ZM143.344 18.68H144.559V19.55C144.559 20.525 144.559 21.785 144.199 23.465L142.984 23.33C143.344 21.68 143.344 20.51 143.344 19.55V18.68ZM135.304 25.505H144.604V28.955H136.579V30.845H135.334V27.995H143.374V26.51H135.304V25.505ZM135.334 30.515H144.949V31.52H135.334V30.515ZM147.663 28.97H159.948V30.005H147.663V28.97ZM153.153 26.06H154.398V29.405H153.153V26.06ZM149.148 19.115H158.433V23.225H150.423V25.94H149.193V22.22H157.203V20.12H149.148V19.115ZM149.193 25.415H158.748V26.435H149.193V25.415ZM168.694 19.28H169.714V21.71C169.714 24.83 168.034 27.725 165.814 28.85L165.049 27.83C167.059 26.87 168.694 24.275 168.694 21.71V19.28ZM168.904 19.28H169.924V21.71C169.924 24.185 171.544 26.675 173.554 27.605L172.804 28.595C170.599 27.515 168.904 24.725 168.904 21.71V19.28ZM174.964 18.095H176.209V31.685H174.964V18.095ZM182.252 19.505H183.272V20.6C183.272 23.09 181.772 25.16 179.507 25.97L178.847 24.995C180.902 24.275 182.252 22.535 182.252 20.6V19.505ZM182.477 19.505H183.497V20.585C183.497 22.385 184.802 24.05 186.797 24.725L186.152 25.7C183.917 24.92 182.477 22.925 182.477 20.585V19.505ZM179.237 19.055H186.482V20.075H179.237V19.055ZM188.192 18.11H189.437V26.27H188.192V18.11ZM189.092 21.68H191.447V22.715H189.092V21.68ZM180.632 26.99H189.437V31.67H188.192V28.025H180.632V26.99ZM201.901 18.11H203.146V31.67H201.901V18.11ZM202.846 23.675H205.366V24.725H202.846V23.675ZM192.646 20.27H200.641V21.29H192.646V20.27ZM196.696 22.415C198.616 22.415 199.996 23.705 199.996 25.535C199.996 27.365 198.616 28.655 196.696 28.655C194.791 28.655 193.396 27.365 193.396 25.535C193.396 23.705 194.791 22.415 196.696 22.415ZM196.696 23.45C195.466 23.45 194.581 24.305 194.581 25.535C194.581 26.75 195.466 27.62 196.696 27.62C197.926 27.62 198.811 26.75 198.811 25.535C198.811 24.305 197.926 23.45 196.696 23.45ZM196.051 18.275H197.296V20.735H196.051V18.275ZM216.39 18.11H217.635V31.67H216.39V18.11ZM212.415 19.565H213.645C213.645 23.495 211.875 26.93 207.345 29.15L206.685 28.145C210.6 26.255 212.415 23.375 212.415 19.775V19.565ZM207.3 19.565H212.955V20.585H207.3V19.565Z" fill="black"/>
</svg>
