<svg width="330" height="49" viewBox="0 0 330 49" fill="none" xmlns="http://www.w3.org/2000/svg">
<path fill-rule="evenodd" clip-rule="evenodd" d="M6.6 0H322.905C327.045 0 329.505 2.9253 329.505 6.53333V41.9767C329.505 46.0747 327.045 49 322.905 49H6.6C2.95515 49 0 46.0747 0 41.9767V6.53333C0 2.9253 2.95515 0 6.6 0Z" fill="#FEE500"/>
<path fill-rule="evenodd" clip-rule="evenodd" d="M24.8054 15.228C19.8323 15.228 15.4004 18.6341 15.4004 22.8356C15.4004 25.4478 17.1147 27.7519 19.725 29.1217L18.6267 33.1125C18.5293 33.4658 18.9352 33.7468 19.2465 33.542L24.0612 30.3816C24.4671 30.4202 24.8802 30.4431 24.8054 30.4431C30.7679 30.4431 34.7054 27.0365 34.7054 22.8356C34.7054 18.6341 30.7679 15.228 24.8054 15.228Z" fill="black" fill-opacity="0.902"/>
<path d="M125.095 19.29C125.005 24.03 122.71 26.85 119.11 28.59L118.405 27.735C120.565 26.805 122.23 25.335 123.145 23.385L118.72 23.775L118.48 22.74L123.505 22.44C123.715 21.75 123.85 21.015 123.895 20.235H119.035V19.29H125.095ZM128.35 17.94V23.31H130.495V24.285H128.35V31.05H127.21V17.94H128.35ZM138.074 19.29C137.984 24.03 135.689 26.85 132.089 28.59L131.384 27.735C133.544 26.805 135.209 25.335 136.124 23.385L131.699 23.775L131.459 22.74L136.484 22.44C136.694 21.75 136.829 21.015 136.874 20.235H132.014V19.29H138.074ZM141.329 17.94V23.31H143.474V24.285H141.329V31.05H140.189V17.94H141.329ZM154.862 22.335C154.862 24.345 153.212 25.71 150.692 25.875V28.365H156.062V29.325H144.227V28.365H149.552V25.875C147.047 25.695 145.412 24.345 145.412 22.335C145.412 20.175 147.302 18.765 150.122 18.765C152.987 18.765 154.862 20.175 154.862 22.335ZM153.767 22.35C153.767 20.775 152.342 19.725 150.122 19.725C147.947 19.725 146.522 20.775 146.522 22.35C146.522 23.925 147.947 24.96 150.122 24.96C152.327 24.96 153.767 23.925 153.767 22.35ZM169.041 29.385H157.206V28.425H162.531V26.19H158.661V22.095H166.431V19.995H158.646V19.035H167.571V23.04H159.801V25.23H167.946V26.19H163.671V28.425H169.041V29.385ZM184.925 31.05H183.77V17.94H184.925V31.05ZM182.105 27.03L181.385 27.9C180.2 27.09 178.655 25.47 178.145 23.895C177.665 25.53 176.315 27.135 174.8 28.215L174.05 27.36C175.97 26.16 177.545 23.775 177.545 21.45V19.08H178.7V21.405C178.7 23.805 180.29 25.95 182.105 27.03ZM187.178 19.845V18.885H194.333V19.845H191.348C191.348 20.175 191.348 20.43 191.363 20.565C191.468 22.245 193.028 23.685 194.528 24.18L193.898 25.095C192.638 24.585 191.303 23.4 190.763 22.215C190.403 23.445 188.873 24.855 187.463 25.455L186.803 24.57C188.453 23.94 190.118 22.29 190.178 20.55C190.178 20.43 190.193 20.175 190.193 19.845H187.178ZM188.723 26.415H197.183V31.065H196.043V27.36H188.723V26.415ZM199.163 22.44H197.168V25.725H196.028V17.94H197.168V21.48H199.163V22.44ZM212.292 24.435H210.162V31.05H209.022V17.94H210.162V23.475H212.292V24.435ZM205.827 19.815H201.972V18.84H205.827V19.815ZM207.762 22.035H200.022V21.09H207.762V22.035ZM206.982 25.59C206.982 27.105 205.752 28.29 203.922 28.29C202.092 28.29 200.862 27.12 200.862 25.59C200.862 24.06 202.092 22.875 203.922 22.875C205.752 22.875 206.982 24.045 206.982 25.59ZM205.842 25.59C205.842 24.555 205.032 23.835 203.922 23.835C202.827 23.835 202.002 24.555 202.002 25.59C202.002 26.61 202.827 27.345 203.922 27.345C205.047 27.345 205.842 26.61 205.842 25.59ZM223.77 31.05H222.63V17.94H223.77V31.05ZM219.915 19.335C219.855 23.595 217.245 26.85 213.855 28.455L213.195 27.555C216.51 26.1 218.46 23.25 218.7 20.295H213.675V19.335H219.915Z" fill="#191919"/>
</svg>
